<svg width="32" height="32" viewBox="0 0 32 32" fill="none" xmlns="http://www.w3.org/2000/svg">
<rect width="32" height="32" rx="16" fill="white"/>
<path d="M7.47461 8.23633C7.69141 8.23633 7.87598 8.2627 8.02832 8.31543C8.18652 8.36816 8.3125 8.44141 8.40625 8.53516C8.50586 8.62891 8.57617 8.7373 8.61719 8.86035C8.66406 8.9834 8.6875 9.11523 8.6875 9.25586C8.6875 9.53711 8.59668 9.77734 8.41504 9.97656C8.23926 10.1758 7.94922 10.2754 7.54492 10.2754C7.28125 10.2871 7.04688 10.3486 6.8418 10.46C6.75391 10.5068 6.66602 10.5684 6.57812 10.6445C6.49609 10.7207 6.42285 10.8145 6.3584 10.9258C6.29395 11.0312 6.24121 11.1602 6.2002 11.3125C6.15918 11.4648 6.13867 11.6406 6.13867 11.8398V13.0527C6.13867 13.4629 6.09473 13.8291 6.00684 14.1514C5.91895 14.4678 5.81348 14.7373 5.69043 14.96C5.57324 15.1826 5.45312 15.3584 5.33008 15.4873C5.20703 15.6104 5.11328 15.6836 5.04883 15.707C5.11328 15.7305 5.20703 15.8066 5.33008 15.9355C5.45312 16.0586 5.57324 16.2344 5.69043 16.4629C5.81348 16.6855 5.91895 16.958 6.00684 17.2803C6.09473 17.5967 6.13867 17.957 6.13867 18.3613V19.9082C6.13867 20.0898 6.15918 20.251 6.2002 20.3916C6.24121 20.5264 6.29395 20.6465 6.3584 20.752C6.42285 20.8516 6.49609 20.9365 6.57812 21.0068C6.66602 21.0771 6.75391 21.1357 6.8418 21.1826C7.04688 21.2881 7.28125 21.3496 7.54492 21.3672C7.94922 21.3672 8.23926 21.4668 8.41504 21.666C8.59668 21.8652 8.6875 22.1055 8.6875 22.3867C8.6875 22.5273 8.66113 22.6592 8.6084 22.7822C8.56152 22.9053 8.47656 23.0137 8.35352 23.1074C8.23047 23.2012 8.06641 23.2744 7.86133 23.3271C7.65625 23.3799 7.39844 23.4062 7.08789 23.4062C6.44922 23.3711 5.88086 23.2188 5.38281 22.9492C5.17188 22.8379 4.96387 22.6914 4.75879 22.5098C4.55371 22.334 4.36914 22.1201 4.20508 21.8682C4.04688 21.6104 3.91797 21.3086 3.81836 20.9629C3.72461 20.6113 3.67773 20.207 3.67773 19.75V18.0977C3.67773 17.8281 3.64844 17.6055 3.58984 17.4297C3.53711 17.248 3.4668 17.1016 3.37891 16.9902C3.29102 16.873 3.19141 16.7793 3.08008 16.709C2.96875 16.6387 2.85742 16.5742 2.74609 16.5156C2.66406 16.4688 2.58496 16.4219 2.50879 16.375C2.43848 16.3281 2.37695 16.2754 2.32422 16.2168C2.27148 16.1523 2.22754 16.082 2.19238 16.0059C2.16309 15.9238 2.14844 15.8242 2.14844 15.707C2.14844 15.4785 2.2041 15.3115 2.31543 15.2061C2.43262 15.1006 2.57617 15.0039 2.74609 14.916C2.85742 14.8574 2.96875 14.793 3.08008 14.7227C3.19141 14.6523 3.29102 14.5615 3.37891 14.4502C3.4668 14.333 3.53711 14.1836 3.58984 14.002C3.64844 13.8203 3.67773 13.5918 3.67773 13.3164V11.418C3.67773 10.8848 3.77441 10.4189 3.96777 10.0205C4.16699 9.62207 4.43652 9.29102 4.77637 9.02734C5.12207 8.76367 5.52344 8.56738 5.98047 8.43848C6.44336 8.30371 6.94141 8.23633 7.47461 8.23633ZM13.4688 20.541C13.4688 21.0391 13.3428 21.4082 13.0908 21.6484C12.8389 21.8828 12.4844 22 12.0273 22C11.5586 22 11.1982 21.8828 10.9463 21.6484C10.6943 21.4082 10.5684 21.0391 10.5684 20.541C10.5684 20.0371 10.6943 19.6709 10.9463 19.4424C11.1982 19.2139 11.5586 19.0996 12.0273 19.0996C12.5137 19.0996 12.874 19.2139 13.1084 19.4424C13.3486 19.6709 13.4688 20.0371 13.4688 20.541ZM17.4414 21.3496C17.3945 21.4492 17.3418 21.5518 17.2832 21.6572C17.2305 21.7568 17.1631 21.8506 17.0811 21.9385C17.0049 22.0205 16.9141 22.0879 16.8086 22.1406C16.709 22.1992 16.5918 22.2285 16.457 22.2285C16.3105 22.2285 16.1465 22.1875 15.9648 22.1055C15.7246 22 15.5518 21.8828 15.4463 21.7539C15.3408 21.625 15.2793 21.4902 15.2617 21.3496C15.2617 21.1797 15.2793 21.0332 15.3145 20.9102C15.3555 20.7871 15.4023 20.6582 15.4551 20.5234L19.7441 10.4863C19.7852 10.3926 19.8291 10.2959 19.876 10.1963C19.9229 10.0967 19.9785 10.0088 20.043 9.93262C20.1074 9.85059 20.1807 9.7832 20.2627 9.73047C20.3506 9.67188 20.4531 9.63672 20.5703 9.625C20.6934 9.625 20.8047 9.63379 20.9043 9.65137C21.0098 9.66895 21.1211 9.70117 21.2383 9.74805C21.4668 9.84766 21.6309 9.96191 21.7305 10.0908C21.8301 10.2139 21.8887 10.3457 21.9062 10.4863C21.9062 10.6621 21.8857 10.8174 21.8447 10.9521C21.8096 11.0869 21.7656 11.2129 21.7129 11.3301L17.4414 21.3496ZM29.8516 15.707C29.8516 15.8242 29.834 15.9238 29.7988 16.0059C29.7695 16.082 29.7285 16.1523 29.6758 16.2168C29.623 16.2754 29.5586 16.3281 29.4824 16.375C29.4121 16.4219 29.3359 16.4688 29.2539 16.5156C29.1484 16.5742 29.04 16.6387 28.9287 16.709C28.8174 16.7793 28.7178 16.873 28.6299 16.9902C28.542 17.1016 28.4688 17.248 28.4102 17.4297C28.3516 17.6055 28.3223 17.8281 28.3223 18.0977V19.75C28.3223 20.207 28.2725 20.6113 28.1729 20.9629C28.0791 21.3086 27.9502 21.6104 27.7861 21.8682C27.6279 22.1201 27.4463 22.334 27.2412 22.5098C27.0361 22.6914 26.8281 22.8379 26.6172 22.9492C26.1191 23.2188 25.5508 23.3711 24.9121 23.4062C24.6016 23.4062 24.3438 23.3799 24.1387 23.3271C23.9336 23.2744 23.7695 23.2012 23.6465 23.1074C23.5234 23.0137 23.4355 22.9053 23.3828 22.7822C23.3359 22.6592 23.3125 22.5273 23.3125 22.3867C23.3125 22.2461 23.333 22.1143 23.374 21.9912C23.4209 21.8682 23.4912 21.7598 23.585 21.666C23.6787 21.5723 23.7988 21.499 23.9453 21.4463C24.0918 21.3936 24.2676 21.3672 24.4727 21.3672C24.7305 21.3496 24.9619 21.2881 25.167 21.1826C25.2549 21.1357 25.3398 21.0771 25.4219 21.0068C25.5039 20.9365 25.5771 20.8516 25.6416 20.752C25.7061 20.6465 25.7588 20.5264 25.7998 20.3916C25.8408 20.251 25.8613 20.0898 25.8613 19.9082V18.3613C25.8613 17.957 25.9053 17.5967 25.9932 17.2803C26.0869 16.958 26.1953 16.6855 26.3184 16.4629C26.4414 16.2344 26.5645 16.0586 26.6875 15.9355C26.8105 15.8066 26.9043 15.7305 26.9688 15.707C26.9043 15.6836 26.8105 15.6104 26.6875 15.4873C26.5645 15.3584 26.4414 15.1826 26.3184 14.96C26.1953 14.7373 26.0869 14.4678 25.9932 14.1514C25.9053 13.8291 25.8613 13.4629 25.8613 13.0527V11.8398C25.8613 11.6406 25.8408 11.4648 25.7998 11.3125C25.7588 11.1602 25.7061 11.0312 25.6416 10.9258C25.5771 10.8145 25.5039 10.7207 25.4219 10.6445C25.3398 10.5684 25.2549 10.5068 25.167 10.46C24.9619 10.3486 24.7305 10.2871 24.4727 10.2754C24.2676 10.2754 24.0918 10.249 23.9453 10.1963C23.7988 10.1436 23.6787 10.0703 23.585 9.97656C23.4912 9.88281 23.4209 9.77441 23.374 9.65137C23.333 9.52832 23.3125 9.39648 23.3125 9.25586C23.3125 9.11523 23.333 8.9834 23.374 8.86035C23.4209 8.7373 23.4912 8.62891 23.585 8.53516C23.6846 8.44141 23.8135 8.36816 23.9717 8.31543C24.1299 8.2627 24.3203 8.23633 24.543 8.23633C25.0762 8.23633 25.5713 8.30371 26.0283 8.43848C26.4912 8.56738 26.8926 8.76367 27.2324 9.02734C27.5723 9.29102 27.8389 9.62207 28.0322 10.0205C28.2256 10.4189 28.3223 10.8848 28.3223 11.418V13.3164C28.3223 13.5918 28.3516 13.8203 28.4102 14.002C28.4688 14.1836 28.542 14.333 28.6299 14.4502C28.7178 14.5615 28.8174 14.6523 28.9287 14.7227C29.04 14.793 29.1484 14.8574 29.2539 14.916C29.4238 15.0039 29.5645 15.1006 29.6758 15.2061C29.793 15.3115 29.8516 15.4785 29.8516 15.707Z" fill="#22A7F0"/>
</svg>
